<svg width="229" height="102" viewBox="0 0 229 102" fill="none" xmlns="http://www.w3.org/2000/svg">
<path d="M9.0752 90.5428H11.9326V101.814H13.846V90.5428H16.7063V88.6416H9.0752V90.5428Z" fill="#999999"/>
<path d="M26.2541 89.3383C25.5481 89.8654 25.1951 90.731 25.1951 91.9352V98.278C25.1951 100.637 26.3688 101.816 28.7163 101.815H33.8493V99.9139H29.2284C28.8353 99.9292 28.4416 99.9041 28.0536 99.8391C27.8651 99.7876 27.6907 99.6946 27.5434 99.5668C27.3962 99.439 27.2798 99.2799 27.2031 99.1012C27.1417 98.9847 27.1087 98.8554 27.1067 98.7239V96.1313H33.8895V94.2321H27.1067V91.992C27.1058 91.6308 27.226 91.2797 27.4481 90.9938C27.545 90.8533 27.6753 90.7387 27.8274 90.6601C27.9794 90.5816 28.1487 90.5414 28.3201 90.5433H33.9076V88.6421H29.0587C27.8085 88.6421 26.8736 88.8742 26.2541 89.3383Z" fill="#999999"/>
<path d="M44.0028 89.5542C43.4358 90.1946 43.1377 91.0266 43.1698 91.8789V98.6529C43.1698 99.8332 43.5864 100.699 44.4196 101.251C44.9061 101.6 45.4865 101.796 46.0861 101.815H51.7684V99.9138H46.4833C46.2979 99.9171 46.1139 99.882 45.9429 99.8108C45.7719 99.7395 45.6177 99.6337 45.4901 99.5C45.3582 99.3697 45.2541 99.2142 45.1841 99.0429C45.1142 98.8717 45.0799 98.6881 45.0832 98.5033V91.9345C45.0832 91.0072 45.5499 90.5434 46.4833 90.5432H51.8071V88.642H46.2385C45.8216 88.6235 45.4055 88.6956 45.0194 88.8531C44.6333 89.0106 44.2864 89.2499 44.0028 89.5542V89.5542Z" fill="#999999"/>
<path d="M68.6454 94.3264H62.8491V88.6426H60.9358V101.815H62.8491V96.2253H68.6454V101.815H70.5587V88.6426H68.6454V94.3264Z" fill="#999999"/>
<path d="M87.4722 99.5881L83.4409 89.8547C83.1523 89.1246 82.7563 88.7024 82.2529 88.5881C82.0557 88.5411 81.8539 88.5153 81.6511 88.5112C80.5941 88.5112 80.0662 89.1647 80.0674 90.4718V101.816H81.981V91.1623L85.9771 100.667C86.3939 101.646 87.0253 102.086 87.8713 101.986C88.0833 101.967 88.2893 101.906 88.4776 101.808C88.6658 101.709 88.8325 101.574 88.9681 101.411C89.2449 101.082 89.3928 100.664 89.3849 100.236V88.6423H87.4716L87.4722 99.5881Z" fill="#999999"/>
<path d="M104.388 88.6421H102.929C101.566 88.6421 100.561 88.9117 99.9168 89.451C99.236 90.0412 98.8952 91.0012 98.8944 92.3312V98.126C98.8853 98.7673 99.035 99.401 99.3303 99.9713C99.9745 101.2 101.174 101.814 102.929 101.815H104.388C105.751 101.815 106.755 101.545 107.399 101.006C108.081 100.416 108.423 99.4558 108.423 98.126V92.3312C108.423 91.0012 108.081 90.0412 107.399 89.451C106.754 88.9125 105.751 88.6429 104.388 88.6421ZM106.509 98.239C106.509 98.879 106.373 99.3187 106.1 99.558C105.828 99.7955 105.361 99.9145 104.704 99.9145H102.652C101.979 99.9145 101.504 99.7938 101.226 99.5486C100.949 99.3034 100.808 98.8549 100.808 98.2031V92.2544C100.808 91.6032 100.947 91.1548 101.226 90.9092C101.505 90.6635 101.98 90.5416 102.652 90.5433H104.704C105.375 90.5433 105.844 90.6653 106.11 90.9092C106.376 91.1531 106.509 91.6015 106.509 92.2544V98.239Z" fill="#999999"/>
<path d="M120.213 99.5939C119.967 99.3811 119.843 99.0113 119.843 98.4844V88.6421H117.93V98.5034C117.93 99.593 118.245 100.421 118.877 100.987C119.471 101.539 120.323 101.815 121.435 101.815H126.417V99.9139H121.398C120.977 99.9508 120.557 99.8373 120.213 99.5939Z" fill="#999999"/>
<path d="M140.377 88.6421H138.917C137.553 88.6421 136.55 88.9117 135.906 89.451C135.223 90.0412 134.883 91.0012 134.884 92.3312V98.126C134.875 98.7669 135.023 99.4004 135.317 99.9713C135.961 101.2 137.161 101.814 138.916 101.815H140.376C141.74 101.815 142.743 101.545 143.387 101.006C144.068 100.416 144.409 99.4558 144.409 98.126V92.3312C144.409 91.0012 144.069 90.0412 143.387 89.451C142.743 88.9125 141.74 88.6429 140.377 88.6421ZM142.497 98.239C142.497 98.879 142.362 99.318 142.088 99.558C141.814 99.7981 141.351 99.9145 140.691 99.9145H138.641C137.969 99.9145 137.495 99.7938 137.215 99.5486C136.936 99.3034 136.797 98.8549 136.797 98.2031V92.2544C136.797 91.6031 136.938 91.1544 137.215 90.9092C137.493 90.664 137.969 90.5433 138.641 90.5433H140.693C141.364 90.5433 141.833 90.6653 142.099 90.9092C142.365 91.1531 142.498 91.6015 142.498 92.2544L142.497 98.239Z" fill="#999999"/>
<path d="M161.496 98.559C161.499 98.6286 161.493 98.6984 161.476 98.766C161.362 99.5324 160.896 99.9148 160.076 99.9131H156.893C156.622 99.8696 156.373 99.7365 156.187 99.5351C156.001 99.3338 155.889 99.076 155.869 98.8036C155.852 98.7104 155.839 98.6163 155.833 98.5217V91.9728C155.802 91.6172 155.895 91.262 156.097 90.9668C156.359 90.7206 156.703 90.577 157.063 90.5625C157.095 90.5581 157.127 90.5517 157.158 90.5433H162.537V88.6421H157.459C155.099 88.6421 153.918 89.7964 153.918 92.105V98.4096C153.89 99.0548 154.031 99.6963 154.325 100.272C154.664 100.809 155.156 101.234 155.737 101.495C156.267 101.729 156.844 101.839 157.423 101.815H160.075C160.714 101.841 161.349 101.705 161.92 101.42C162.449 101.095 162.862 100.615 163.104 100.046C163.328 99.5103 163.432 98.9321 163.407 98.3522V94.3067H161.493L161.496 98.559Z" fill="#999999"/>
<path d="M174.831 88.6426H172.918V101.815H174.831V88.6426Z" fill="#999999"/>
<path d="M185.419 89.3383C184.71 89.8654 184.357 90.731 184.358 91.9352V98.278C184.358 100.637 185.532 101.816 187.882 101.815H193.014V99.9139H188.392C187.999 99.9293 187.606 99.9043 187.218 99.8391C187.029 99.7876 186.855 99.6946 186.707 99.5668C186.559 99.4391 186.443 99.28 186.365 99.1012C186.305 98.9845 186.272 98.8553 186.271 98.7239V96.1313H193.054V94.2321H186.271V91.992C186.27 91.6309 186.39 91.2798 186.612 90.9938C186.709 90.8533 186.839 90.7387 186.992 90.6601C187.144 90.5816 187.313 90.5414 187.484 90.5433H193.07V88.6421H188.223C186.971 88.6421 186.036 88.8742 185.419 89.3383Z" fill="#999999"/>
<path d="M203.601 88.8878C202.515 89.3879 201.973 90.3289 201.973 91.7106V93.3856C201.964 93.7697 202.05 94.1503 202.222 94.4944C202.394 94.8386 202.648 95.136 202.961 95.3611C203.591 95.828 204.36 96.0728 205.146 96.0567H207.14C207.21 96.0531 207.281 96.0595 207.349 96.0756C208.147 96.1775 208.546 96.5366 208.545 97.1527V98.8371C208.545 98.9747 208.515 99.1108 208.458 99.2363C208.401 99.3617 208.318 99.4738 208.215 99.5652C208.013 99.7634 207.749 99.8866 207.466 99.9142H201.973V101.815H207.473C208.101 101.82 208.715 101.629 209.229 101.27C209.62 101.016 209.939 100.666 210.154 100.254C210.369 99.8426 210.474 99.3826 210.458 98.9188V96.8496C210.458 95.9584 210.004 95.2557 209.094 94.7417C208.6 94.4554 208.038 94.3057 207.466 94.3084H205.136C204.303 94.3084 203.887 93.8504 203.887 92.9345V91.6327C203.887 91.0193 204.215 90.6611 204.87 90.5616C204.903 90.5595 204.934 90.5531 204.965 90.5424H210.535V88.6412H205.156C204.626 88.6156 204.097 88.6996 203.601 88.8878V88.8878Z" fill="#999999"/>
<path d="M76.1127 47.3108H18.7742C21.1392 56.1412 29.267 62.66 38.4298 62.66C45.8187 62.66 51.1405 60.0655 54.983 53.1971H74.4909C69.908 68.8953 54.6877 78.8618 39.0221 78.8618C17.1495 78.8618 0.00634766 61.3777 0.00634766 39.7947C0.00634766 18.3571 16.8542 -0.00195312 38.8734 -0.00195312C60.1541 -0.00195312 77.1503 17.7075 77.1503 38.5564C77.1483 41.4931 76.7047 44.3673 76.1127 47.3108ZM39.1681 16.3962C28.6753 16.3962 20.4009 23.7636 18.1828 33.5746H59.8568C57.4921 23.7636 49.8079 16.3962 39.1667 16.3962H39.1681Z" fill="white"/>
<path d="M116.012 76.745H102.119L72.2673 3.16016H91.4788L109.507 51.9064L126.504 3.16016H146.01L116.012 76.745Z" fill="white"/>
<path d="M228.272 31.3137L225.699 21.3346C225.464 20.4208 224.872 19.6374 224.055 19.1568C223.238 18.6762 222.262 18.5378 221.343 18.772C220.423 19.0061 219.634 19.5937 219.151 20.4055C218.667 21.2172 218.528 22.1866 218.763 23.1004L221.334 33.0795C221.515 33.775 221.904 34.3997 222.449 34.8711C222.995 35.3425 223.671 35.6385 224.39 35.72C224.959 42.2228 224.254 50.7724 218.242 56.4358C212.61 61.7408 204.077 64.3271 197.073 65.592C196.406 64.5883 194.971 63.9804 193.376 64.1507L188.245 64.6956C186.164 64.9178 184.613 66.3817 184.785 67.9626C184.843 68.319 184.951 68.6655 185.107 68.9918C185.724 70.1224 187.228 70.6013 188.864 70.4281L193.999 69.881C195.572 69.7135 196.84 68.8317 197.289 67.728C204.597 66.4307 213.603 63.702 219.698 57.9608C226.452 51.5997 227.178 42.2664 226.52 35.3048C227.217 34.9276 227.767 34.3305 228.085 33.6077C228.402 32.885 228.468 32.0778 228.272 31.3137V31.3137Z" fill="#999999"/>
<path d="M198.189 68.9614C197.367 70.1944 195.863 71.0656 194.144 71.2474L189.01 71.7954C188.747 71.8233 188.483 71.8375 188.219 71.8379C186.227 71.8379 184.65 71.0398 183.89 69.6485C183.648 69.165 183.486 68.6462 183.409 68.1117C183.356 67.5009 183.446 66.8861 183.673 66.3159C183.9 65.7456 184.256 65.2353 184.715 64.8252C185.648 63.9742 186.835 63.4497 188.096 63.3315L193.227 62.7867C193.452 62.7628 193.679 62.7507 193.906 62.7506C195.26 62.7283 196.575 63.2089 197.592 64.0983C203.201 63.0192 210.424 60.8998 215.691 56.7943C218.281 51.4402 219.619 45.5741 219.607 39.634C219.607 18.1964 202.315 0.430664 180.591 0.430664C158.867 0.430664 140.987 17.903 140.987 39.6337C140.987 61.0693 158.722 78.835 180.298 78.835C185.875 78.8535 191.392 77.686 196.477 75.4108C201.563 73.1357 206.099 69.8056 209.782 65.6442C206.038 67.1309 202.155 68.2421 198.189 68.9614V68.9614ZM158.722 39.6337C158.722 27.7413 168.032 16.5828 180.446 16.5828C193.006 16.5828 201.873 28.0344 201.873 39.927C201.873 51.9668 193.006 62.6846 180.446 62.6846C167.588 62.6846 158.722 51.9668 158.722 39.6337Z" fill="white"/>
</svg>
